G75*
%MOIN*%
%OFA0B0*%
%FSLAX24Y24*%
%IPPOS*%
%LPD*%
%AMOC8*
5,1,8,0,0,1.08239X$1,22.5*
%
%ADD10OC8,0.0620*%
%ADD11C,0.2060*%
%ADD12C,0.1320*%
%ADD13C,0.0540*%
%ADD14R,0.0574X0.0574*%
%ADD15C,0.0540*%
%ADD16OC8,0.0594*%
%ADD17C,0.1202*%
%ADD18C,0.1047*%
%ADD19C,0.0760*%
%ADD20C,0.0887*%
%ADD21C,0.0580*%
%ADD22OC8,0.0535*%
%ADD23OC8,0.0580*%
%ADD24C,0.0740*%
%ADD25C,0.0820*%
%ADD26C,0.1560*%
%ADD27C,0.1060*%
%ADD28C,0.0416*%
%ADD29C,0.0377*%
D10*
X007680Y005775D03*
X007680Y006855D03*
X007680Y007935D03*
X007680Y009015D03*
X007680Y010095D03*
X006680Y009555D03*
X006680Y008475D03*
X006680Y007395D03*
X006680Y006315D03*
X007680Y020145D03*
X007680Y021225D03*
X007680Y022305D03*
X007680Y023385D03*
X006680Y023925D03*
X006680Y022845D03*
X006680Y021765D03*
X006680Y020685D03*
X007680Y024465D03*
X007680Y034529D03*
X007680Y035609D03*
X007680Y036689D03*
X007680Y037769D03*
X007680Y038849D03*
X007680Y039929D03*
X007680Y041009D03*
X007680Y042089D03*
X006680Y041549D03*
X006680Y040469D03*
X006680Y039389D03*
X006680Y038309D03*
X006680Y037229D03*
X006680Y036149D03*
X006680Y035069D03*
D11*
X007180Y003005D03*
X007180Y012865D03*
X007180Y017375D03*
X007180Y027235D03*
X007180Y031749D03*
X007180Y044869D03*
D12*
X011444Y044391D03*
X056719Y042029D03*
X056719Y005612D03*
X011444Y003250D03*
D13*
X035782Y010650D03*
X035782Y012550D03*
D14*
X033782Y035100D03*
X033782Y036100D03*
X033782Y037100D03*
D15*
X037782Y039860D02*
X037782Y040340D01*
X037782Y042860D02*
X037782Y043340D01*
X021282Y033340D02*
X021282Y032860D01*
X020282Y032860D02*
X020282Y033340D01*
X019282Y033340D02*
X019282Y032860D01*
X018282Y032860D02*
X018282Y033340D01*
X017282Y033340D02*
X017282Y032860D01*
X016282Y032860D02*
X016282Y033340D01*
X015282Y033340D02*
X015282Y032860D01*
X014282Y032860D02*
X014282Y033340D01*
X013282Y033340D02*
X013282Y032860D01*
X012282Y032860D02*
X012282Y033340D01*
X012282Y030340D02*
X012282Y029860D01*
X013282Y029860D02*
X013282Y030340D01*
X014282Y030340D02*
X014282Y029860D01*
X015282Y029860D02*
X015282Y030340D01*
X016282Y030340D02*
X016282Y029860D01*
X017282Y029860D02*
X017282Y030340D01*
X018282Y030340D02*
X018282Y029860D01*
X019282Y029860D02*
X019282Y030340D01*
X020282Y030340D02*
X020282Y029860D01*
X021282Y029860D02*
X021282Y030340D01*
D16*
X060458Y004923D03*
X061246Y004923D03*
X061246Y003939D03*
X060458Y003939D03*
D17*
X062312Y002061D03*
X062312Y006801D03*
D18*
X048058Y007777D03*
X048058Y012108D03*
X048058Y019588D03*
X048058Y023919D03*
X048058Y031399D03*
X048058Y035730D03*
D19*
X043727Y035041D03*
X043727Y034057D03*
X043727Y033072D03*
X043727Y032088D03*
X043727Y023230D03*
X043727Y022246D03*
X043727Y021261D03*
X043727Y020277D03*
X043727Y011419D03*
X043727Y010435D03*
X043727Y009450D03*
X043727Y008466D03*
D20*
X048058Y007777D03*
X048058Y012108D03*
X048058Y019588D03*
X048058Y023919D03*
X048058Y031399D03*
X048058Y035730D03*
D21*
X026042Y009100D02*
X025522Y009100D01*
X024542Y009100D02*
X024022Y009100D01*
X024022Y008100D02*
X024542Y008100D01*
X025522Y008100D02*
X026042Y008100D01*
D22*
X056916Y009943D03*
X057916Y009943D03*
X057916Y010943D03*
X059916Y010943D03*
X061916Y010943D03*
X060916Y008943D03*
X059916Y008943D03*
X057916Y008943D03*
X057916Y014848D03*
X057916Y015848D03*
X056916Y015848D03*
X057916Y016848D03*
X059916Y016848D03*
X061916Y016848D03*
X060916Y014848D03*
X059916Y014848D03*
X059916Y020754D03*
X060916Y020754D03*
X059916Y022754D03*
X057916Y022754D03*
X057916Y021754D03*
X056916Y021754D03*
X057916Y020754D03*
X061916Y022754D03*
X060916Y026659D03*
X059916Y026659D03*
X057916Y026659D03*
X057916Y027659D03*
X056916Y027659D03*
X057916Y028659D03*
X059916Y028659D03*
X061916Y028659D03*
X060916Y032565D03*
X059916Y032565D03*
X057916Y032565D03*
X057916Y033565D03*
X056916Y033565D03*
X057916Y034565D03*
X059916Y034565D03*
X061916Y034565D03*
D23*
X040782Y017100D03*
X039782Y017100D03*
X039782Y016100D03*
X039782Y015100D03*
X040782Y015100D03*
X040782Y016100D03*
X040782Y010600D03*
X039782Y010600D03*
X039782Y009600D03*
X040782Y009600D03*
X040782Y008600D03*
X039782Y008600D03*
X035782Y006100D03*
X034782Y006100D03*
X033782Y006100D03*
X033782Y005100D03*
X034782Y005100D03*
X035782Y005100D03*
X025282Y005100D03*
X024282Y005100D03*
X023282Y005100D03*
X023282Y006100D03*
X024282Y006100D03*
X025282Y006100D03*
X024282Y012600D03*
X023282Y012600D03*
X023282Y013600D03*
X024282Y013600D03*
X024282Y014600D03*
X023282Y014600D03*
X023436Y040191D03*
X024436Y040191D03*
X024436Y041191D03*
X023436Y041191D03*
X022436Y041191D03*
X021436Y041191D03*
X020436Y041191D03*
X019436Y041191D03*
X018436Y041191D03*
X018436Y040191D03*
X019436Y040191D03*
X020436Y040191D03*
X021436Y040191D03*
X022436Y040191D03*
X025436Y040191D03*
X026436Y040191D03*
X026436Y041191D03*
X025436Y041191D03*
X027436Y041191D03*
X028436Y041191D03*
X029436Y041191D03*
X030436Y041191D03*
X030436Y040191D03*
X029436Y040191D03*
X028436Y040191D03*
X027436Y040191D03*
D24*
X039292Y042260D02*
X039292Y042940D01*
X041272Y042940D02*
X041272Y042260D01*
D25*
X025782Y025100D03*
X024782Y025100D03*
X024782Y019100D03*
X025782Y019100D03*
X018782Y019100D03*
X016782Y019100D03*
X016782Y025100D03*
D26*
X045782Y041100D03*
X051782Y041100D03*
D27*
X049790Y039604D03*
X047774Y039604D03*
X043790Y039604D03*
X043790Y043604D03*
X047774Y043604D03*
X049790Y043604D03*
X053774Y043604D03*
X053774Y039604D03*
D28*
X058282Y030850D03*
X054282Y027850D03*
X049782Y027600D03*
X048282Y028350D03*
X046032Y027100D03*
X047782Y025850D03*
X045782Y024600D03*
X043782Y025600D03*
X043782Y026600D03*
X044032Y028350D03*
X044032Y029100D03*
X044032Y029725D03*
X043282Y030350D03*
X045782Y030600D03*
X045782Y031100D03*
X039782Y029225D03*
X037282Y027600D03*
X039782Y026600D03*
X041782Y024600D03*
X046407Y021725D03*
X047282Y021100D03*
X047282Y023100D03*
X050282Y021600D03*
X054282Y021850D03*
X058282Y018100D03*
X051282Y012100D03*
X052101Y011419D03*
X049282Y009350D03*
X046282Y010100D03*
X045532Y007850D03*
X046282Y006600D03*
X043282Y004600D03*
X042782Y001850D03*
X038782Y004100D03*
X032782Y010350D03*
X031282Y011100D03*
X030282Y011100D03*
X029282Y012100D03*
X028782Y012100D03*
X028782Y012600D03*
X029782Y013600D03*
X030782Y014100D03*
X031282Y013100D03*
X031282Y012600D03*
X031657Y011975D03*
X033532Y013100D03*
X033782Y014600D03*
X032032Y015600D03*
X030782Y015850D03*
X030282Y015600D03*
X030157Y017475D03*
X032282Y018100D03*
X032532Y017600D03*
X034282Y018600D03*
X036282Y020100D03*
X035282Y020350D03*
X032782Y021600D03*
X032782Y022100D03*
X032782Y022600D03*
X031282Y023600D03*
X029782Y023600D03*
X028282Y022600D03*
X028282Y022100D03*
X029282Y020600D03*
X025282Y017600D03*
X024782Y017600D03*
X024282Y017100D03*
X022782Y017100D03*
X021782Y018100D03*
X022782Y018600D03*
X023282Y019600D03*
X023782Y020100D03*
X022282Y020100D03*
X021282Y021100D03*
X020282Y021600D03*
X013782Y024100D03*
X017282Y027100D03*
X019282Y027850D03*
X020532Y028100D03*
X024907Y030100D03*
X023282Y032850D03*
X020782Y034100D03*
X019782Y035100D03*
X017782Y034100D03*
X016782Y034100D03*
X014782Y032100D03*
X010782Y029100D03*
X014282Y028600D03*
X009532Y034850D03*
X012282Y036225D03*
X018282Y038350D03*
X029782Y031600D03*
X032407Y027600D03*
X031782Y027100D03*
X034282Y023100D03*
X038032Y018350D03*
X037782Y016600D03*
X041282Y017600D03*
X045782Y019100D03*
X048282Y017600D03*
X039282Y012100D03*
X028782Y007600D03*
X027282Y006600D03*
X023782Y010100D03*
X018032Y012150D03*
X015782Y012600D03*
X015032Y012150D03*
X015782Y015600D03*
X010282Y011100D03*
X005282Y015100D03*
X015782Y007350D03*
X010532Y005225D03*
X007782Y004600D03*
X013282Y001850D03*
X027782Y015100D03*
X034782Y031350D03*
X038782Y038975D03*
X005782Y025600D03*
X005282Y025600D03*
X005282Y025100D03*
X005782Y025100D03*
X052782Y002100D03*
X054032Y002850D03*
X055032Y001600D03*
X055782Y001850D03*
X054032Y004350D03*
X053782Y006100D03*
X055282Y008600D03*
X058782Y004600D03*
X060782Y002600D03*
X063782Y005600D03*
D29*
X005782Y043600D03*
X005282Y043600D03*
X004782Y043600D03*
X004782Y043100D03*
X005282Y043100D03*
M02*
