G75*
%MOIN*%
%OFA0B0*%
%FSLAX24Y24*%
%IPPOS*%
%LPD*%
%AMOC8*
5,1,8,0,0,1.08239X$1,22.5*
%
%ADD10C,0.0000*%
D10*
X002782Y000100D02*
X002782Y047541D01*
X017026Y047541D01*
X017026Y045336D01*
X017028Y045297D01*
X017034Y045259D01*
X017043Y045222D01*
X017056Y045185D01*
X017073Y045150D01*
X017092Y045117D01*
X017115Y045086D01*
X017141Y045057D01*
X017170Y045031D01*
X017201Y045008D01*
X017234Y044989D01*
X017269Y044972D01*
X017306Y044959D01*
X017343Y044950D01*
X017381Y044944D01*
X017420Y044942D01*
X017420Y044943D02*
X033814Y044943D01*
X033814Y044942D02*
X033853Y044944D01*
X033891Y044950D01*
X033928Y044959D01*
X033965Y044972D01*
X034000Y044989D01*
X034033Y045008D01*
X034064Y045031D01*
X034093Y045057D01*
X034119Y045086D01*
X034142Y045117D01*
X034161Y045150D01*
X034178Y045185D01*
X034191Y045222D01*
X034200Y045259D01*
X034206Y045297D01*
X034208Y045336D01*
X034208Y047541D01*
X065381Y047541D01*
X065381Y000100D01*
X002782Y000100D01*
X010814Y003250D02*
X010816Y003300D01*
X010822Y003350D01*
X010832Y003399D01*
X010846Y003447D01*
X010863Y003494D01*
X010884Y003539D01*
X010909Y003583D01*
X010937Y003624D01*
X010969Y003663D01*
X011003Y003700D01*
X011040Y003734D01*
X011080Y003764D01*
X011122Y003791D01*
X011166Y003815D01*
X011212Y003836D01*
X011259Y003852D01*
X011307Y003865D01*
X011357Y003874D01*
X011406Y003879D01*
X011457Y003880D01*
X011507Y003877D01*
X011556Y003870D01*
X011605Y003859D01*
X011653Y003844D01*
X011699Y003826D01*
X011744Y003804D01*
X011787Y003778D01*
X011828Y003749D01*
X011867Y003717D01*
X011903Y003682D01*
X011935Y003644D01*
X011965Y003604D01*
X011992Y003561D01*
X012015Y003517D01*
X012034Y003471D01*
X012050Y003423D01*
X012062Y003374D01*
X012070Y003325D01*
X012074Y003275D01*
X012074Y003225D01*
X012070Y003175D01*
X012062Y003126D01*
X012050Y003077D01*
X012034Y003029D01*
X012015Y002983D01*
X011992Y002939D01*
X011965Y002896D01*
X011935Y002856D01*
X011903Y002818D01*
X011867Y002783D01*
X011828Y002751D01*
X011787Y002722D01*
X011744Y002696D01*
X011699Y002674D01*
X011653Y002656D01*
X011605Y002641D01*
X011556Y002630D01*
X011507Y002623D01*
X011457Y002620D01*
X011406Y002621D01*
X011357Y002626D01*
X011307Y002635D01*
X011259Y002648D01*
X011212Y002664D01*
X011166Y002685D01*
X011122Y002709D01*
X011080Y002736D01*
X011040Y002766D01*
X011003Y002800D01*
X010969Y002837D01*
X010937Y002876D01*
X010909Y002917D01*
X010884Y002961D01*
X010863Y003006D01*
X010846Y003053D01*
X010832Y003101D01*
X010822Y003150D01*
X010816Y003200D01*
X010814Y003250D01*
X047645Y007777D02*
X047647Y007817D01*
X047653Y007858D01*
X047663Y007897D01*
X047676Y007935D01*
X047694Y007972D01*
X047715Y008006D01*
X047739Y008039D01*
X047766Y008069D01*
X047796Y008096D01*
X047829Y008120D01*
X047863Y008141D01*
X047900Y008159D01*
X047938Y008172D01*
X047977Y008182D01*
X048018Y008188D01*
X048058Y008190D01*
X048098Y008188D01*
X048139Y008182D01*
X048178Y008172D01*
X048216Y008159D01*
X048253Y008141D01*
X048287Y008120D01*
X048320Y008096D01*
X048350Y008069D01*
X048377Y008039D01*
X048401Y008006D01*
X048422Y007972D01*
X048440Y007935D01*
X048453Y007897D01*
X048463Y007858D01*
X048469Y007817D01*
X048471Y007777D01*
X048469Y007737D01*
X048463Y007696D01*
X048453Y007657D01*
X048440Y007619D01*
X048422Y007582D01*
X048401Y007548D01*
X048377Y007515D01*
X048350Y007485D01*
X048320Y007458D01*
X048287Y007434D01*
X048253Y007413D01*
X048216Y007395D01*
X048178Y007382D01*
X048139Y007372D01*
X048098Y007366D01*
X048058Y007364D01*
X048018Y007366D01*
X047977Y007372D01*
X047938Y007382D01*
X047900Y007395D01*
X047863Y007413D01*
X047829Y007434D01*
X047796Y007458D01*
X047766Y007485D01*
X047739Y007515D01*
X047715Y007548D01*
X047694Y007582D01*
X047676Y007619D01*
X047663Y007657D01*
X047653Y007696D01*
X047647Y007737D01*
X047645Y007777D01*
X047645Y012108D02*
X047647Y012148D01*
X047653Y012189D01*
X047663Y012228D01*
X047676Y012266D01*
X047694Y012303D01*
X047715Y012337D01*
X047739Y012370D01*
X047766Y012400D01*
X047796Y012427D01*
X047829Y012451D01*
X047863Y012472D01*
X047900Y012490D01*
X047938Y012503D01*
X047977Y012513D01*
X048018Y012519D01*
X048058Y012521D01*
X048098Y012519D01*
X048139Y012513D01*
X048178Y012503D01*
X048216Y012490D01*
X048253Y012472D01*
X048287Y012451D01*
X048320Y012427D01*
X048350Y012400D01*
X048377Y012370D01*
X048401Y012337D01*
X048422Y012303D01*
X048440Y012266D01*
X048453Y012228D01*
X048463Y012189D01*
X048469Y012148D01*
X048471Y012108D01*
X048469Y012068D01*
X048463Y012027D01*
X048453Y011988D01*
X048440Y011950D01*
X048422Y011913D01*
X048401Y011879D01*
X048377Y011846D01*
X048350Y011816D01*
X048320Y011789D01*
X048287Y011765D01*
X048253Y011744D01*
X048216Y011726D01*
X048178Y011713D01*
X048139Y011703D01*
X048098Y011697D01*
X048058Y011695D01*
X048018Y011697D01*
X047977Y011703D01*
X047938Y011713D01*
X047900Y011726D01*
X047863Y011744D01*
X047829Y011765D01*
X047796Y011789D01*
X047766Y011816D01*
X047739Y011846D01*
X047715Y011879D01*
X047694Y011913D01*
X047676Y011950D01*
X047663Y011988D01*
X047653Y012027D01*
X047647Y012068D01*
X047645Y012108D01*
X056089Y005612D02*
X056091Y005662D01*
X056097Y005712D01*
X056107Y005761D01*
X056121Y005809D01*
X056138Y005856D01*
X056159Y005901D01*
X056184Y005945D01*
X056212Y005986D01*
X056244Y006025D01*
X056278Y006062D01*
X056315Y006096D01*
X056355Y006126D01*
X056397Y006153D01*
X056441Y006177D01*
X056487Y006198D01*
X056534Y006214D01*
X056582Y006227D01*
X056632Y006236D01*
X056681Y006241D01*
X056732Y006242D01*
X056782Y006239D01*
X056831Y006232D01*
X056880Y006221D01*
X056928Y006206D01*
X056974Y006188D01*
X057019Y006166D01*
X057062Y006140D01*
X057103Y006111D01*
X057142Y006079D01*
X057178Y006044D01*
X057210Y006006D01*
X057240Y005966D01*
X057267Y005923D01*
X057290Y005879D01*
X057309Y005833D01*
X057325Y005785D01*
X057337Y005736D01*
X057345Y005687D01*
X057349Y005637D01*
X057349Y005587D01*
X057345Y005537D01*
X057337Y005488D01*
X057325Y005439D01*
X057309Y005391D01*
X057290Y005345D01*
X057267Y005301D01*
X057240Y005258D01*
X057210Y005218D01*
X057178Y005180D01*
X057142Y005145D01*
X057103Y005113D01*
X057062Y005084D01*
X057019Y005058D01*
X056974Y005036D01*
X056928Y005018D01*
X056880Y005003D01*
X056831Y004992D01*
X056782Y004985D01*
X056732Y004982D01*
X056681Y004983D01*
X056632Y004988D01*
X056582Y004997D01*
X056534Y005010D01*
X056487Y005026D01*
X056441Y005047D01*
X056397Y005071D01*
X056355Y005098D01*
X056315Y005128D01*
X056278Y005162D01*
X056244Y005199D01*
X056212Y005238D01*
X056184Y005279D01*
X056159Y005323D01*
X056138Y005368D01*
X056121Y005415D01*
X056107Y005463D01*
X056097Y005512D01*
X056091Y005562D01*
X056089Y005612D01*
X047645Y019588D02*
X047647Y019628D01*
X047653Y019669D01*
X047663Y019708D01*
X047676Y019746D01*
X047694Y019783D01*
X047715Y019817D01*
X047739Y019850D01*
X047766Y019880D01*
X047796Y019907D01*
X047829Y019931D01*
X047863Y019952D01*
X047900Y019970D01*
X047938Y019983D01*
X047977Y019993D01*
X048018Y019999D01*
X048058Y020001D01*
X048098Y019999D01*
X048139Y019993D01*
X048178Y019983D01*
X048216Y019970D01*
X048253Y019952D01*
X048287Y019931D01*
X048320Y019907D01*
X048350Y019880D01*
X048377Y019850D01*
X048401Y019817D01*
X048422Y019783D01*
X048440Y019746D01*
X048453Y019708D01*
X048463Y019669D01*
X048469Y019628D01*
X048471Y019588D01*
X048469Y019548D01*
X048463Y019507D01*
X048453Y019468D01*
X048440Y019430D01*
X048422Y019393D01*
X048401Y019359D01*
X048377Y019326D01*
X048350Y019296D01*
X048320Y019269D01*
X048287Y019245D01*
X048253Y019224D01*
X048216Y019206D01*
X048178Y019193D01*
X048139Y019183D01*
X048098Y019177D01*
X048058Y019175D01*
X048018Y019177D01*
X047977Y019183D01*
X047938Y019193D01*
X047900Y019206D01*
X047863Y019224D01*
X047829Y019245D01*
X047796Y019269D01*
X047766Y019296D01*
X047739Y019326D01*
X047715Y019359D01*
X047694Y019393D01*
X047676Y019430D01*
X047663Y019468D01*
X047653Y019507D01*
X047647Y019548D01*
X047645Y019588D01*
X047645Y023919D02*
X047647Y023959D01*
X047653Y024000D01*
X047663Y024039D01*
X047676Y024077D01*
X047694Y024114D01*
X047715Y024148D01*
X047739Y024181D01*
X047766Y024211D01*
X047796Y024238D01*
X047829Y024262D01*
X047863Y024283D01*
X047900Y024301D01*
X047938Y024314D01*
X047977Y024324D01*
X048018Y024330D01*
X048058Y024332D01*
X048098Y024330D01*
X048139Y024324D01*
X048178Y024314D01*
X048216Y024301D01*
X048253Y024283D01*
X048287Y024262D01*
X048320Y024238D01*
X048350Y024211D01*
X048377Y024181D01*
X048401Y024148D01*
X048422Y024114D01*
X048440Y024077D01*
X048453Y024039D01*
X048463Y024000D01*
X048469Y023959D01*
X048471Y023919D01*
X048469Y023879D01*
X048463Y023838D01*
X048453Y023799D01*
X048440Y023761D01*
X048422Y023724D01*
X048401Y023690D01*
X048377Y023657D01*
X048350Y023627D01*
X048320Y023600D01*
X048287Y023576D01*
X048253Y023555D01*
X048216Y023537D01*
X048178Y023524D01*
X048139Y023514D01*
X048098Y023508D01*
X048058Y023506D01*
X048018Y023508D01*
X047977Y023514D01*
X047938Y023524D01*
X047900Y023537D01*
X047863Y023555D01*
X047829Y023576D01*
X047796Y023600D01*
X047766Y023627D01*
X047739Y023657D01*
X047715Y023690D01*
X047694Y023724D01*
X047676Y023761D01*
X047663Y023799D01*
X047653Y023838D01*
X047647Y023879D01*
X047645Y023919D01*
X047645Y031399D02*
X047647Y031439D01*
X047653Y031480D01*
X047663Y031519D01*
X047676Y031557D01*
X047694Y031594D01*
X047715Y031628D01*
X047739Y031661D01*
X047766Y031691D01*
X047796Y031718D01*
X047829Y031742D01*
X047863Y031763D01*
X047900Y031781D01*
X047938Y031794D01*
X047977Y031804D01*
X048018Y031810D01*
X048058Y031812D01*
X048098Y031810D01*
X048139Y031804D01*
X048178Y031794D01*
X048216Y031781D01*
X048253Y031763D01*
X048287Y031742D01*
X048320Y031718D01*
X048350Y031691D01*
X048377Y031661D01*
X048401Y031628D01*
X048422Y031594D01*
X048440Y031557D01*
X048453Y031519D01*
X048463Y031480D01*
X048469Y031439D01*
X048471Y031399D01*
X048469Y031359D01*
X048463Y031318D01*
X048453Y031279D01*
X048440Y031241D01*
X048422Y031204D01*
X048401Y031170D01*
X048377Y031137D01*
X048350Y031107D01*
X048320Y031080D01*
X048287Y031056D01*
X048253Y031035D01*
X048216Y031017D01*
X048178Y031004D01*
X048139Y030994D01*
X048098Y030988D01*
X048058Y030986D01*
X048018Y030988D01*
X047977Y030994D01*
X047938Y031004D01*
X047900Y031017D01*
X047863Y031035D01*
X047829Y031056D01*
X047796Y031080D01*
X047766Y031107D01*
X047739Y031137D01*
X047715Y031170D01*
X047694Y031204D01*
X047676Y031241D01*
X047663Y031279D01*
X047653Y031318D01*
X047647Y031359D01*
X047645Y031399D01*
X047645Y035730D02*
X047647Y035770D01*
X047653Y035811D01*
X047663Y035850D01*
X047676Y035888D01*
X047694Y035925D01*
X047715Y035959D01*
X047739Y035992D01*
X047766Y036022D01*
X047796Y036049D01*
X047829Y036073D01*
X047863Y036094D01*
X047900Y036112D01*
X047938Y036125D01*
X047977Y036135D01*
X048018Y036141D01*
X048058Y036143D01*
X048098Y036141D01*
X048139Y036135D01*
X048178Y036125D01*
X048216Y036112D01*
X048253Y036094D01*
X048287Y036073D01*
X048320Y036049D01*
X048350Y036022D01*
X048377Y035992D01*
X048401Y035959D01*
X048422Y035925D01*
X048440Y035888D01*
X048453Y035850D01*
X048463Y035811D01*
X048469Y035770D01*
X048471Y035730D01*
X048469Y035690D01*
X048463Y035649D01*
X048453Y035610D01*
X048440Y035572D01*
X048422Y035535D01*
X048401Y035501D01*
X048377Y035468D01*
X048350Y035438D01*
X048320Y035411D01*
X048287Y035387D01*
X048253Y035366D01*
X048216Y035348D01*
X048178Y035335D01*
X048139Y035325D01*
X048098Y035319D01*
X048058Y035317D01*
X048018Y035319D01*
X047977Y035325D01*
X047938Y035335D01*
X047900Y035348D01*
X047863Y035366D01*
X047829Y035387D01*
X047796Y035411D01*
X047766Y035438D01*
X047739Y035468D01*
X047715Y035501D01*
X047694Y035535D01*
X047676Y035572D01*
X047663Y035610D01*
X047653Y035649D01*
X047647Y035690D01*
X047645Y035730D01*
X056089Y042029D02*
X056091Y042079D01*
X056097Y042129D01*
X056107Y042178D01*
X056121Y042226D01*
X056138Y042273D01*
X056159Y042318D01*
X056184Y042362D01*
X056212Y042403D01*
X056244Y042442D01*
X056278Y042479D01*
X056315Y042513D01*
X056355Y042543D01*
X056397Y042570D01*
X056441Y042594D01*
X056487Y042615D01*
X056534Y042631D01*
X056582Y042644D01*
X056632Y042653D01*
X056681Y042658D01*
X056732Y042659D01*
X056782Y042656D01*
X056831Y042649D01*
X056880Y042638D01*
X056928Y042623D01*
X056974Y042605D01*
X057019Y042583D01*
X057062Y042557D01*
X057103Y042528D01*
X057142Y042496D01*
X057178Y042461D01*
X057210Y042423D01*
X057240Y042383D01*
X057267Y042340D01*
X057290Y042296D01*
X057309Y042250D01*
X057325Y042202D01*
X057337Y042153D01*
X057345Y042104D01*
X057349Y042054D01*
X057349Y042004D01*
X057345Y041954D01*
X057337Y041905D01*
X057325Y041856D01*
X057309Y041808D01*
X057290Y041762D01*
X057267Y041718D01*
X057240Y041675D01*
X057210Y041635D01*
X057178Y041597D01*
X057142Y041562D01*
X057103Y041530D01*
X057062Y041501D01*
X057019Y041475D01*
X056974Y041453D01*
X056928Y041435D01*
X056880Y041420D01*
X056831Y041409D01*
X056782Y041402D01*
X056732Y041399D01*
X056681Y041400D01*
X056632Y041405D01*
X056582Y041414D01*
X056534Y041427D01*
X056487Y041443D01*
X056441Y041464D01*
X056397Y041488D01*
X056355Y041515D01*
X056315Y041545D01*
X056278Y041579D01*
X056244Y041616D01*
X056212Y041655D01*
X056184Y041696D01*
X056159Y041740D01*
X056138Y041785D01*
X056121Y041832D01*
X056107Y041880D01*
X056097Y041929D01*
X056091Y041979D01*
X056089Y042029D01*
X010814Y044391D02*
X010816Y044441D01*
X010822Y044491D01*
X010832Y044540D01*
X010846Y044588D01*
X010863Y044635D01*
X010884Y044680D01*
X010909Y044724D01*
X010937Y044765D01*
X010969Y044804D01*
X011003Y044841D01*
X011040Y044875D01*
X011080Y044905D01*
X011122Y044932D01*
X011166Y044956D01*
X011212Y044977D01*
X011259Y044993D01*
X011307Y045006D01*
X011357Y045015D01*
X011406Y045020D01*
X011457Y045021D01*
X011507Y045018D01*
X011556Y045011D01*
X011605Y045000D01*
X011653Y044985D01*
X011699Y044967D01*
X011744Y044945D01*
X011787Y044919D01*
X011828Y044890D01*
X011867Y044858D01*
X011903Y044823D01*
X011935Y044785D01*
X011965Y044745D01*
X011992Y044702D01*
X012015Y044658D01*
X012034Y044612D01*
X012050Y044564D01*
X012062Y044515D01*
X012070Y044466D01*
X012074Y044416D01*
X012074Y044366D01*
X012070Y044316D01*
X012062Y044267D01*
X012050Y044218D01*
X012034Y044170D01*
X012015Y044124D01*
X011992Y044080D01*
X011965Y044037D01*
X011935Y043997D01*
X011903Y043959D01*
X011867Y043924D01*
X011828Y043892D01*
X011787Y043863D01*
X011744Y043837D01*
X011699Y043815D01*
X011653Y043797D01*
X011605Y043782D01*
X011556Y043771D01*
X011507Y043764D01*
X011457Y043761D01*
X011406Y043762D01*
X011357Y043767D01*
X011307Y043776D01*
X011259Y043789D01*
X011212Y043805D01*
X011166Y043826D01*
X011122Y043850D01*
X011080Y043877D01*
X011040Y043907D01*
X011003Y043941D01*
X010969Y043978D01*
X010937Y044017D01*
X010909Y044058D01*
X010884Y044102D01*
X010863Y044147D01*
X010846Y044194D01*
X010832Y044242D01*
X010822Y044291D01*
X010816Y044341D01*
X010814Y044391D01*
M02*
