%
M48
M72
T01C0.0197
T02C0.0236
T03C0.0276
T04C0.0315
T05C0.0320
T06C0.0354
T07C0.0360
T08C0.0374
T09C0.0394
T10C0.0400
T11C0.0472
T12C0.0520
T13C0.0827
T14C0.0866
T15C0.0906
T16C0.1260
T17C0.1300
%
T01
X4782Y43100
X4782Y43600
X5282Y43600
X5282Y43100
X5782Y43600
T02
X12282Y36225
X9532Y34850
X14782Y32100
X16782Y34100
X17782Y34100
X19782Y35100
X20782Y34100
X23282Y32850
X24907Y30100
X20532Y28100
X19282Y27850
X17282Y27100
X14282Y28600
X10782Y29100
X5782Y25600
X5282Y25600
X5282Y25100
X5782Y25100
X13782Y24100
X20282Y21600
X21282Y21100
X22282Y20100
X23282Y19600
X23782Y20100
X22782Y18600
X21782Y18100
X22782Y17100
X24282Y17100
X24782Y17600
X25282Y17600
X27782Y15100
X29782Y13600
X30782Y14100
X31282Y13100
X31282Y12600
X31657Y11975
X31282Y11100
X30282Y11100
X29282Y12100
X28782Y12100
X28782Y12600
X30282Y15600
X30782Y15850
X32032Y15600
X33782Y14600
X33532Y13100
X32782Y10350
X28782Y7600
X27282Y6600
X23782Y10100
X18032Y12150
X15782Y12600
X15032Y12150
X15782Y15600
X10282Y11100
X5282Y15100
X15782Y7350
X10532Y5225
X7782Y4600
X13282Y1850
X30157Y17475
X32282Y18100
X32532Y17600
X34282Y18600
X36282Y20100
X35282Y20350
X32782Y21600
X32782Y22100
X32782Y22600
X31282Y23600
X29782Y23600
X28282Y22600
X28282Y22100
X29282Y20600
X34282Y23100
X31782Y27100
X32407Y27600
X34782Y31350
X37282Y27600
X39782Y26600
X41782Y24600
X43782Y25600
X43782Y26600
X44032Y28350
X44032Y29100
X44032Y29725
X43282Y30350
X45782Y30600
X45782Y31100
X48282Y28350
X49782Y27600
X47782Y25850
X46032Y27100
X45782Y24600
X47282Y23100
X46407Y21725
X47282Y21100
X45782Y19100
X48282Y17600
X50282Y21600
X54282Y21850
X58282Y18100
X51282Y12100
X52101Y11419
X49282Y9350
X46282Y10100
X45532Y7850
X46282Y6600
X43282Y4600
X42782Y1850
X38782Y4100
X39282Y12100
X37782Y16600
X38032Y18350
X41282Y17600
X54282Y27850
X58282Y30850
X39782Y29225
X29782Y31600
X38782Y38975
X18282Y38350
X55282Y8600
X53782Y6100
X54032Y4350
X54032Y2850
X52782Y2100
X55032Y1600
X55782Y1850
X58782Y4600
X60782Y2600
X63782Y5600
T03
X25782Y19100
X24782Y19100
X18782Y19100
X16782Y19100
X16782Y25100
X24782Y25100
X25782Y25100
T04
X56916Y27659
X57916Y27659
X57916Y26659
X59916Y26659
X60916Y26659
X59916Y28659
X57916Y28659
X61916Y28659
X60916Y32565
X59916Y32565
X57916Y32565
X57916Y33565
X56916Y33565
X57916Y34565
X59916Y34565
X61916Y34565
X61916Y22754
X59916Y22754
X57916Y22754
X57916Y21754
X56916Y21754
X57916Y20754
X59916Y20754
X60916Y20754
X59916Y16848
X57916Y16848
X57916Y15848
X56916Y15848
X57916Y14848
X59916Y14848
X60916Y14848
X61916Y16848
X61916Y10943
X59916Y10943
X57916Y10943
X57916Y9943
X56916Y9943
X57916Y8943
X59916Y8943
X60916Y8943
T05
X35782Y10650
X35782Y12550
X21282Y30100
X20282Y30100
X19282Y30100
X18282Y30100
X17282Y30100
X16282Y30100
X15282Y30100
X14282Y30100
X13282Y30100
X12282Y30100
X12282Y33100
X13282Y33100
X14282Y33100
X15282Y33100
X16282Y33100
X17282Y33100
X18282Y33100
X19282Y33100
X20282Y33100
X21282Y33100
X37782Y40100
X37782Y43100
T06
X33782Y37100
X33782Y36100
X33782Y35100
T07
X30436Y40191
X29436Y40191
X29436Y41191
X30436Y41191
X28436Y41191
X27436Y41191
X26436Y41191
X25436Y41191
X24436Y41191
X23436Y41191
X22436Y41191
X21436Y41191
X20436Y41191
X19436Y41191
X18436Y41191
X18436Y40191
X19436Y40191
X20436Y40191
X21436Y40191
X22436Y40191
X23436Y40191
X24436Y40191
X25436Y40191
X26436Y40191
X27436Y40191
X28436Y40191
X39782Y17100
X40782Y17100
X40782Y16100
X39782Y16100
X39782Y15100
X40782Y15100
X40782Y10600
X39782Y10600
X39782Y9600
X40782Y9600
X40782Y8600
X39782Y8600
X35782Y6100
X34782Y6100
X33782Y6100
X33782Y5100
X34782Y5100
X35782Y5100
X25782Y8100
X25782Y9100
X24282Y9100
X24282Y8100
X24282Y6100
X23282Y6100
X23282Y5100
X24282Y5100
X25282Y5100
X25282Y6100
X24282Y12600
X23282Y12600
X23282Y13600
X24282Y13600
X24282Y14600
X23282Y14600
T08
X60458Y4923
X61246Y4923
X61246Y3939
X60458Y3939
T09
X43727Y8466
X43727Y9450
X43727Y10435
X43727Y11419
X43727Y20277
X43727Y21261
X43727Y22246
X43727Y23230
X43727Y32088
X43727Y33072
X43727Y34057
X43727Y35041
T10
X7680Y34529
X7680Y35609
X7680Y36689
X7680Y37769
X7680Y38849
X7680Y39929
X7680Y41009
X7680Y42089
X6680Y41549
X6680Y40469
X6680Y39389
X6680Y38309
X6680Y37229
X6680Y36149
X6680Y35069
X7680Y24465
X6680Y23925
X6680Y22845
X6680Y21765
X6680Y20685
X7680Y21225
X7680Y22305
X7680Y23385
X7680Y20145
X7680Y10095
X7680Y9015
X7680Y7935
X7680Y6855
X7680Y5775
X6680Y6315
X6680Y7395
X6680Y8475
X6680Y9555
T11
X43790Y39604
X47774Y39604
X49790Y39604
X53774Y39604
X53774Y43604
X49790Y43604
X47774Y43604
X43790Y43604
T12
X41272Y42600
X39292Y42600
T13
X48058Y35730
X48058Y35730
X48058Y31399
X48058Y31399
X48058Y23919
X48058Y23919
X48058Y19588
X48058Y19588
X48058Y12108
X48058Y12108
X48058Y7777
X48058Y7777
T14
X45782Y41100
X51782Y41100
T15
X62312Y6801
X62312Y2061
T16
X56719Y5612
X11444Y3250
X56719Y42029
X11444Y44391
T17
X7180Y3005
X7180Y12865
X7180Y17375
X7180Y27235
X7180Y31749
X7180Y44869
M30
