  0
SECTION
  2
HEADER
  9
$ACADVER
  1
AC1009
  9
$FILLMODE
 70
0
  9
$EXTMIN
 10
-9.0932
 20
-2.1270
 30
0.0000
  9
$EXTMAX
 10
102.1270
 20
123.1270
 30
0.0000
  0
ENDSEC
  0
SECTION
  2
TABLES
  0
TABLE
  2
LTYPE
 70
1
  0
LTYPE
  2
CONTINUOUS
 70
64
  3
Solid line
 72
65
 73
0
 40
0
  0
ENDTAB
  0
TABLE
  2
LAYER
 70
255
  0
LAYER
  2
17
 70
64
 62
82
  6
CONTINUOUS
  0
LAYER
  2
20
 70
64
 62
7
  6
CONTINUOUS
  0
LAYER
  2
46
 70
64
 62
140
  6
CONTINUOUS
  0
LAYER
  2
200
 70
64
 62
253
  6
CONTINUOUS
  0
ENDTAB
  0
ENDSEC
  0
SECTION
  2
BLOCKS
  0
BLOCK
  8
0
  2
RECT
 70
64
 10
0.0000
 20
0.0000
 30
0.0000
  3
RECT
  0
SOLID
  8
0
 10
-0.5000
 20
-0.5000
 30
0.0000
 11
0.5000
 21
-0.5000
 31
0.0000
 12
-0.5000
 22
0.5000
 32
0.0000
 13
0.5000
 23
0.5000
 33
0.0000
  0
ENDBLK
  8
0
  0
BLOCK
  8
0
  2
PIE
 70
64
 10
0.0000
 20
0.0000
 30
0.0000
  3
PIE
  0
CIRCLE
  8
0
 10
0.0000
 20
0.0000
 30
0.0000
 40
0.5000
  0
ENDBLK
  8
0
  0
BLOCK
  8
0
  2
OCTAGONP
 70
64
 10
0.0000
 20
0.0000
 30
0.0000
  3
OCTAGONP
  0
POLYLINE
  8
0
 66
1
 10
0.0000
 20
0.0000
 30
0.0000
 40
0.0000
 41
0.0000
 70
1
  0
VERTEX
  8
0
 10
-0.5000
 20
-0.2071
 30
0.0000
  0
VERTEX
  8
0
 10
-0.5000
 20
0.2071
 30
0.0000
  0
VERTEX
  8
0
 10
-0.2071
 20
0.5000
 30
0.0000
  0
VERTEX
  8
0
 10
0.2071
 20
0.5000
 30
0.0000
  0
VERTEX
  8
0
 10
0.5000
 20
0.2071
 30
0.0000
  0
VERTEX
  8
0
 10
0.5000
 20
-0.2071
 30
0.0000
  0
VERTEX
  8
0
 10
0.2071
 20
-0.5000
 30
0.0000
  0
VERTEX
  8
0
 10
-0.2071
 20
-0.5000
 30
0.0000
  0
SEQEND
  8
0
  0
ENDBLK
  8
0
  0
BLOCK
  8
0
  2
SQUAREP
 70
64
 10
0.0000
 20
0.0000
 30
0.0000
  3
SQUAREP
  0
SOLID
  8
0
 10
-0.5000
 20
-0.5000
 30
0.0000
 11
0.5000
 21
-0.5000
 31
0.0000
 12
-0.5000
 22
0.5000
 32
0.0000
 13
0.5000
 23
0.5000
 33
0.0000
  0
ENDBLK
  8
0
  0
BLOCK
  8
0
  2
ROUNDP
 70
64
 10
0.0000
 20
0.0000
 30
0.0000
  3
ROUNDP
  0
CIRCLE
  8
0
 10
0.0000
 20
0.0000
 30
0.0000
 40
0.5000
  0
ENDBLK
  8
0
  0
BLOCK
  8
0
  2
ANNULUSP
 70
64
 10
0.0000
 20
0.0000
 30
0.0000
  3
ANNULUSP
  0
CIRCLE
  8
0
 10
0.0000
 20
0.0000
 30
0.0000
 40
0.5000
  0
ENDBLK
  8
0
  0
BLOCK
  8
0
  2
THERMALP
 70
64
 10
0.0000
 20
0.0000
 30
0.0000
  3
THERMALP
  0
LINE
  8
0
 10
-0.2379
 20
0.4500
 30
0.0000
 11
0.2379
 21
0.4500
 31
0.0000
  0
LINE
  8
0
 10
0.4500
 20
0.2379
 30
0.0000
 11
0.4500
 21
-0.2379
 31
0.0000
  0
LINE
  8
0
 10
0.2379
 20
-0.4500
 30
0.0000
 11
-0.2379
 21
-0.4500
 31
0.0000
  0
LINE
  8
0
 10
-0.4500
 20
-0.2379
 30
0.0000
 11
-0.4500
 21
0.2379
 31
0.0000
  0
ENDBLK
  8
0
  0
BLOCK
  8
0
  2
OCTAGONV
 70
64
 10
0.0000
 20
0.0000
 30
0.0000
  3
OCTAGONV
  0
POLYLINE
  8
0
 66
1
 10
0.0000
 20
0.0000
 30
0.0000
 40
0.0000
 41
0.0000
 70
1
  0
VERTEX
  8
0
 10
-0.5000
 20
-0.2071
 30
0.0000
  0
VERTEX
  8
0
 10
-0.5000
 20
0.2071
 30
0.0000
  0
VERTEX
  8
0
 10
-0.2071
 20
0.5000
 30
0.0000
  0
VERTEX
  8
0
 10
0.2071
 20
0.5000
 30
0.0000
  0
VERTEX
  8
0
 10
0.5000
 20
0.2071
 30
0.0000
  0
VERTEX
  8
0
 10
0.5000
 20
-0.2071
 30
0.0000
  0
VERTEX
  8
0
 10
0.2071
 20
-0.5000
 30
0.0000
  0
VERTEX
  8
0
 10
-0.2071
 20
-0.5000
 30
0.0000
  0
SEQEND
  8
0
  0
ENDBLK
  8
0
  0
BLOCK
  8
0
  2
SQUAREV
 70
64
 10
0.0000
 20
0.0000
 30
0.0000
  3
SQUAREV
  0
SOLID
  8
0
 10
-0.5000
 20
-0.5000
 30
0.0000
 11
0.5000
 21
-0.5000
 31
0.0000
 12
-0.5000
 22
0.5000
 32
0.0000
 13
0.5000
 23
0.5000
 33
0.0000
  0
ENDBLK
  8
0
  0
BLOCK
  8
0
  2
ROUNDV
 70
64
 10
0.0000
 20
0.0000
 30
0.0000
  3
ROUNDV
  0
CIRCLE
  8
0
 10
0.0000
 20
0.0000
 30
0.0000
 40
0.5000
  0
ENDBLK
  8
0
  0
BLOCK
  8
0
  2
ANNULUSV
 70
64
 10
0.0000
 20
0.0000
 30
0.0000
  3
ANNULUSV
  0
CIRCLE
  8
0
 10
0.0000
 20
0.0000
 30
0.0000
 40
0.5000
  0
ENDBLK
  8
0
  0
BLOCK
  8
0
  2
THERMALV
 70
64
 10
0.0000
 20
0.0000
 30
0.0000
  3
THERMALV
  0
LINE
  8
0
 10
-0.2379
 20
0.4500
 30
0.0000
 11
0.2379
 21
0.4500
 31
0.0000
  0
LINE
  8
0
 10
0.4500
 20
0.2379
 30
0.0000
 11
0.4500
 21
-0.2379
 31
0.0000
  0
LINE
  8
0
 10
0.2379
 20
-0.4500
 30
0.0000
 11
-0.2379
 21
-0.4500
 31
0.0000
  0
LINE
  8
0
 10
-0.4500
 20
-0.2379
 30
0.0000
 11
-0.4500
 21
0.2379
 31
0.0000
  0
ENDBLK
  8
0
  0
BLOCK
  8
0
  2
LONGP100
 70
64
 10
0.0000
 20
0.0000
 30
0.0000
  3
LONGP100
  0
POLYLINE
  8
0
 66
1
 10
0.0000
 20
0.0000
 30
0.0000
 40
0.0000
 41
0.0000
 70
1
  0
VERTEX
  8
0
 10
-0.5000
 20
-0.5000
 30
0.0000
  0
VERTEX
  8
0
 10
0.5000
 20
-0.5000
 30
0.0000
 42
1.0000
  0
VERTEX
  8
0
 10
0.5000
 20
0.5000
 30
0.0000
  0
VERTEX
  8
0
 10
-0.5000
 20
0.5000
 30
0.0000
 42
1.0000
  0
SEQEND
  8
0
  0
ENDBLK
  8
0
  0
ENDSEC
  0
SECTION
  2
ENTITIES
  0
LINE
  8
20
 10
0.0000
 20
0.0000
 30
0.0000
 11
100.0000
 21
0.0000
 31
0.0000
  0
LINE
  8
20
 10
100.0000
 20
0.0000
 30
0.0000
 11
100.0000
 21
120.5000
 31
0.0000
  0
LINE
  8
20
 10
100.0000
 20
120.5000
 30
0.0000
 11
79.8200
 21
120.5000
 31
0.0000
  0
LINE
  8
20
 10
36.1800
 20
120.5000
 30
0.0000
 11
0.0000
 21
120.5000
 31
0.0000
  0
LINE
  8
20
 10
0.0000
 20
120.5000
 30
0.0000
 11
0.0000
 21
0.0000
 31
0.0000
  0
LINE
  8
20
 10
36.1800
 20
120.5000
 30
0.0000
 11
36.1800
 21
114.9000
 31
0.0000
  0
LINE
  8
20
 10
37.1800
 20
113.9000
 30
0.0000
 11
78.8200
 21
113.9000
 31
0.0000
  0
LINE
  8
20
 10
79.8200
 20
120.5000
 30
0.0000
 11
79.8200
 21
114.9000
 31
0.0000
  0
ARC
  8
20
 10
78.8200
 20
114.9000
 30
0.0000
 40
1.0000
 50
270.0000
 51
0.0000
  0
ARC
  8
20
 10
37.1800
 20
114.9000
 30
0.0000
 40
1.0000
 50
180.0000
 51
270.0000
  0
INSERT
  8
17
  2
LONGP100
 10
65.0000
 20
56.1900
 30
0.0000
 41
1.2192
 42
1.2192
 43
1.0000
 50
270.0000
  0
INSERT
  8
17
  2
LONGP100
 10
65.0000
 20
56.1900
 30
0.0000
 41
1.2192
 42
1.2192
 43
1.0000
 50
270.0000
  0
INSERT
  8
17
  2
LONGP100
 10
65.0000
 20
63.8100
 30
0.0000
 41
1.2192
 42
1.2192
 43
1.0000
 50
270.0000
  0
INSERT
  8
17
  2
LONGP100
 10
65.0000
 20
63.8100
 30
0.0000
 41
1.2192
 42
1.2192
 43
1.0000
 50
270.0000
  0
INSERT
  8
17
  2
LONGP100
 10
19.5000
 20
74.1900
 30
0.0000
 41
1.2192
 42
1.2192
 43
1.0000
 50
270.0000
  0
INSERT
  8
17
  2
LONGP100
 10
19.5000
 20
74.1900
 30
0.0000
 41
1.2192
 42
1.2192
 43
1.0000
 50
270.0000
  0
INSERT
  8
17
  2
LONGP100
 10
19.5000
 20
81.8100
 30
0.0000
 41
1.2192
 42
1.2192
 43
1.0000
 50
270.0000
  0
INSERT
  8
17
  2
LONGP100
 10
19.5000
 20
81.8100
 30
0.0000
 41
1.2192
 42
1.2192
 43
1.0000
 50
270.0000
  0
INSERT
  8
17
  2
OCTAGONP
 10
39.7600
 20
101.8300
 30
0.0000
 41
1.3208
 42
1.3208
 43
1.0000
 50
0.0000
  0
INSERT
  8
17
  2
OCTAGONP
 10
39.7600
 20
101.8300
 30
0.0000
 41
1.3208
 42
1.3208
 43
1.0000
 50
0.0000
  0
INSERT
  8
17
  2
OCTAGONP
 10
39.7600
 20
104.3700
 30
0.0000
 41
1.3208
 42
1.3208
 43
1.0000
 50
0.0000
  0
INSERT
  8
17
  2
OCTAGONP
 10
39.7600
 20
104.3700
 30
0.0000
 41
1.3208
 42
1.3208
 43
1.0000
 50
0.0000
  0
INSERT
  8
17
  2
OCTAGONP
 10
42.3000
 20
101.8300
 30
0.0000
 41
1.3208
 42
1.3208
 43
1.0000
 50
0.0000
  0
INSERT
  8
17
  2
OCTAGONP
 10
42.3000
 20
101.8300
 30
0.0000
 41
1.3208
 42
1.3208
 43
1.0000
 50
0.0000
  0
INSERT
  8
17
  2
OCTAGONP
 10
42.3000
 20
104.3700
 30
0.0000
 41
1.3208
 42
1.3208
 43
1.0000
 50
0.0000
  0
INSERT
  8
17
  2
OCTAGONP
 10
42.3000
 20
104.3700
 30
0.0000
 41
1.3208
 42
1.3208
 43
1.0000
 50
0.0000
  0
INSERT
  8
17
  2
OCTAGONP
 10
44.8400
 20
101.8300
 30
0.0000
 41
1.3208
 42
1.3208
 43
1.0000
 50
0.0000
  0
INSERT
  8
17
  2
OCTAGONP
 10
44.8400
 20
101.8300
 30
0.0000
 41
1.3208
 42
1.3208
 43
1.0000
 50
0.0000
  0
INSERT
  8
17
  2
OCTAGONP
 10
44.8400
 20
104.3700
 30
0.0000
 41
1.3208
 42
1.3208
 43
1.0000
 50
0.0000
  0
INSERT
  8
17
  2
OCTAGONP
 10
44.8400
 20
104.3700
 30
0.0000
 41
1.3208
 42
1.3208
 43
1.0000
 50
0.0000
  0
INSERT
  8
17
  2
OCTAGONP
 10
47.3800
 20
101.8300
 30
0.0000
 41
1.3208
 42
1.3208
 43
1.0000
 50
0.0000
  0
INSERT
  8
17
  2
OCTAGONP
 10
47.3800
 20
101.8300
 30
0.0000
 41
1.3208
 42
1.3208
 43
1.0000
 50
0.0000
  0
INSERT
  8
17
  2
OCTAGONP
 10
47.3800
 20
104.3700
 30
0.0000
 41
1.3208
 42
1.3208
 43
1.0000
 50
0.0000
  0
INSERT
  8
17
  2
OCTAGONP
 10
47.3800
 20
104.3700
 30
0.0000
 41
1.3208
 42
1.3208
 43
1.0000
 50
0.0000
  0
INSERT
  8
17
  2
OCTAGONP
 10
49.9200
 20
101.8300
 30
0.0000
 41
1.3208
 42
1.3208
 43
1.0000
 50
0.0000
  0
INSERT
  8
17
  2
OCTAGONP
 10
49.9200
 20
101.8300
 30
0.0000
 41
1.3208
 42
1.3208
 43
1.0000
 50
0.0000
  0
INSERT
  8
17
  2
OCTAGONP
 10
49.9200
 20
104.3700
 30
0.0000
 41
1.3208
 42
1.3208
 43
1.0000
 50
0.0000
  0
INSERT
  8
17
  2
OCTAGONP
 10
49.9200
 20
104.3700
 30
0.0000
 41
1.3208
 42
1.3208
 43
1.0000
 50
0.0000
  0
INSERT
  8
17
  2
OCTAGONP
 10
52.4600
 20
101.8300
 30
0.0000
 41
1.3208
 42
1.3208
 43
1.0000
 50
0.0000
  0
INSERT
  8
17
  2
OCTAGONP
 10
52.4600
 20
101.8300
 30
0.0000
 41
1.3208
 42
1.3208
 43
1.0000
 50
0.0000
  0
INSERT
  8
17
  2
OCTAGONP
 10
52.4600
 20
104.3700
 30
0.0000
 41
1.3208
 42
1.3208
 43
1.0000
 50
0.0000
  0
INSERT
  8
17
  2
OCTAGONP
 10
52.4600
 20
104.3700
 30
0.0000
 41
1.3208
 42
1.3208
 43
1.0000
 50
0.0000
  0
INSERT
  8
17
  2
OCTAGONP
 10
55.0000
 20
101.8300
 30
0.0000
 41
1.3208
 42
1.3208
 43
1.0000
 50
0.0000
  0
INSERT
  8
17
  2
OCTAGONP
 10
55.0000
 20
101.8300
 30
0.0000
 41
1.3208
 42
1.3208
 43
1.0000
 50
0.0000
  0
INSERT
  8
17
  2
OCTAGONP
 10
55.0000
 20
104.3700
 30
0.0000
 41
1.3208
 42
1.3208
 43
1.0000
 50
0.0000
  0
INSERT
  8
17
  2
OCTAGONP
 10
55.0000
 20
104.3700
 30
0.0000
 41
1.3208
 42
1.3208
 43
1.0000
 50
0.0000
  0
INSERT
  8
17
  2
OCTAGONP
 10
57.5400
 20
101.8300
 30
0.0000
 41
1.3208
 42
1.3208
 43
1.0000
 50
0.0000
  0
INSERT
  8
17
  2
OCTAGONP
 10
57.5400
 20
101.8300
 30
0.0000
 41
1.3208
 42
1.3208
 43
1.0000
 50
0.0000
  0
INSERT
  8
17
  2
OCTAGONP
 10
57.5400
 20
104.3700
 30
0.0000
 41
1.3208
 42
1.3208
 43
1.0000
 50
0.0000
  0
INSERT
  8
17
  2
OCTAGONP
 10
57.5400
 20
104.3700
 30
0.0000
 41
1.3208
 42
1.3208
 43
1.0000
 50
0.0000
  0
INSERT
  8
17
  2
OCTAGONP
 10
60.0800
 20
101.8300
 30
0.0000
 41
1.3208
 42
1.3208
 43
1.0000
 50
0.0000
  0
INSERT
  8
17
  2
OCTAGONP
 10
60.0800
 20
101.8300
 30
0.0000
 41
1.3208
 42
1.3208
 43
1.0000
 50
0.0000
  0
INSERT
  8
17
  2
OCTAGONP
 10
60.0800
 20
104.3700
 30
0.0000
 41
1.3208
 42
1.3208
 43
1.0000
 50
0.0000
  0
INSERT
  8
17
  2
OCTAGONP
 10
60.0800
 20
104.3700
 30
0.0000
 41
1.3208
 42
1.3208
 43
1.0000
 50
0.0000
  0
INSERT
  8
17
  2
OCTAGONP
 10
62.6200
 20
101.8300
 30
0.0000
 41
1.3208
 42
1.3208
 43
1.0000
 50
0.0000
  0
INSERT
  8
17
  2
OCTAGONP
 10
62.6200
 20
101.8300
 30
0.0000
 41
1.3208
 42
1.3208
 43
1.0000
 50
0.0000
  0
INSERT
  8
17
  2
OCTAGONP
 10
62.6200
 20
104.3700
 30
0.0000
 41
1.3208
 42
1.3208
 43
1.0000
 50
0.0000
  0
INSERT
  8
17
  2
OCTAGONP
 10
62.6200
 20
104.3700
 30
0.0000
 41
1.3208
 42
1.3208
 43
1.0000
 50
0.0000
  0
INSERT
  8
17
  2
OCTAGONP
 10
65.1600
 20
101.8300
 30
0.0000
 41
1.3208
 42
1.3208
 43
1.0000
 50
0.0000
  0
INSERT
  8
17
  2
OCTAGONP
 10
65.1600
 20
101.8300
 30
0.0000
 41
1.3208
 42
1.3208
 43
1.0000
 50
0.0000
  0
INSERT
  8
17
  2
OCTAGONP
 10
65.1600
 20
104.3700
 30
0.0000
 41
1.3208
 42
1.3208
 43
1.0000
 50
0.0000
  0
INSERT
  8
17
  2
OCTAGONP
 10
65.1600
 20
104.3700
 30
0.0000
 41
1.3208
 42
1.3208
 43
1.0000
 50
0.0000
  0
INSERT
  8
17
  2
OCTAGONP
 10
67.7000
 20
101.8300
 30
0.0000
 41
1.3208
 42
1.3208
 43
1.0000
 50
0.0000
  0
INSERT
  8
17
  2
OCTAGONP
 10
67.7000
 20
101.8300
 30
0.0000
 41
1.3208
 42
1.3208
 43
1.0000
 50
0.0000
  0
INSERT
  8
17
  2
OCTAGONP
 10
67.7000
 20
104.3700
 30
0.0000
 41
1.3208
 42
1.3208
 43
1.0000
 50
0.0000
  0
INSERT
  8
17
  2
OCTAGONP
 10
67.7000
 20
104.3700
 30
0.0000
 41
1.3208
 42
1.3208
 43
1.0000
 50
0.0000
  0
INSERT
  8
17
  2
OCTAGONP
 10
70.2400
 20
101.8300
 30
0.0000
 41
1.3208
 42
1.3208
 43
1.0000
 50
0.0000
  0
INSERT
  8
17
  2
OCTAGONP
 10
70.2400
 20
101.8300
 30
0.0000
 41
1.3208
 42
1.3208
 43
1.0000
 50
0.0000
  0
INSERT
  8
17
  2
OCTAGONP
 10
70.2400
 20
104.3700
 30
0.0000
 41
1.3208
 42
1.3208
 43
1.0000
 50
0.0000
  0
INSERT
  8
17
  2
OCTAGONP
 10
70.2400
 20
104.3700
 30
0.0000
 41
1.3208
 42
1.3208
 43
1.0000
 50
0.0000
  0
LINE
  8
46
 10
11.0000
 20
67.9400
 30
0.0000
 11
10.0000
 21
67.9400
 31
0.0000
  0
LINE
  8
46
 10
10.0000
 20
65.9400
 30
0.0000
 11
11.0000
 21
65.9400
 31
0.0000
  0
ARC
  8
46
 10
11.0000
 20
66.9400
 30
0.0000
 40
1.0000
 50
270.0000
 51
90.0000
  0
ARC
  8
46
 10
10.0000
 20
66.9400
 30
0.0000
 40
1.0000
 50
90.0000
 51
270.0000
  0
LINE
  8
46
 10
11.0000
 20
73.0600
 30
0.0000
 11
10.0000
 21
73.0600
 31
0.0000
  0
LINE
  8
46
 10
10.0000
 20
75.0600
 30
0.0000
 11
11.0000
 21
75.0600
 31
0.0000
  0
ARC
  8
46
 10
11.0000
 20
74.0600
 30
0.0000
 40
1.0000
 50
270.0000
 51
90.0000
  0
ARC
  8
46
 10
10.0000
 20
74.0600
 30
0.0000
 40
1.0000
 50
90.0000
 51
270.0000
  0
INSERT
  8
17
  2
ROUNDP
 10
16.6400
 20
63.5600
 30
0.0000
 41
2.5400
 42
2.5400
 43
1.0000
 50
0.0000
  0
INSERT
  8
17
  2
ROUNDP
 10
16.6400
 20
63.5600
 30
0.0000
 41
2.5400
 42
2.5400
 43
1.0000
 50
0.0000
  0
INSERT
  8
17
  2
ROUNDP
 10
26.8000
 20
63.5600
 30
0.0000
 41
2.5400
 42
2.5400
 43
1.0000
 50
0.0000
  0
INSERT
  8
17
  2
ROUNDP
 10
26.8000
 20
63.5600
 30
0.0000
 41
2.5400
 42
2.5400
 43
1.0000
 50
0.0000
  0
INSERT
  8
17
  2
ROUNDP
 10
16.6400
 20
53.4400
 30
0.0000
 41
2.5400
 42
2.5400
 43
1.0000
 50
0.0000
  0
INSERT
  8
17
  2
ROUNDP
 10
16.6400
 20
53.4400
 30
0.0000
 41
2.5400
 42
2.5400
 43
1.0000
 50
0.0000
  0
INSERT
  8
17
  2
ROUNDP
 10
26.8000
 20
53.4400
 30
0.0000
 41
2.5400
 42
2.5400
 43
1.0000
 50
0.0000
  0
INSERT
  8
17
  2
ROUNDP
 10
26.8000
 20
53.4400
 30
0.0000
 41
2.5400
 42
2.5400
 43
1.0000
 50
0.0000
  0
INSERT
  8
17
  2
ROUNDP
 10
23.0000
 20
58.5000
 30
0.0000
 41
3.8100
 42
3.8100
 43
1.0000
 50
0.0000
  0
INSERT
  8
17
  2
ROUNDP
 10
23.0000
 20
58.5000
 30
0.0000
 41
3.8100
 42
3.8100
 43
1.0000
 50
0.0000
  0
INSERT
  8
17
  2
ROUNDP
 10
16.6400
 20
44.5600
 30
0.0000
 41
2.5400
 42
2.5400
 43
1.0000
 50
0.0000
  0
INSERT
  8
17
  2
ROUNDP
 10
16.6400
 20
44.5600
 30
0.0000
 41
2.5400
 42
2.5400
 43
1.0000
 50
0.0000
  0
INSERT
  8
17
  2
ROUNDP
 10
26.8000
 20
44.5600
 30
0.0000
 41
2.5400
 42
2.5400
 43
1.0000
 50
0.0000
  0
INSERT
  8
17
  2
ROUNDP
 10
26.8000
 20
44.5600
 30
0.0000
 41
2.5400
 42
2.5400
 43
1.0000
 50
0.0000
  0
INSERT
  8
17
  2
ROUNDP
 10
16.6400
 20
34.4400
 30
0.0000
 41
2.5400
 42
2.5400
 43
1.0000
 50
0.0000
  0
INSERT
  8
17
  2
ROUNDP
 10
16.6400
 20
34.4400
 30
0.0000
 41
2.5400
 42
2.5400
 43
1.0000
 50
0.0000
  0
INSERT
  8
17
  2
ROUNDP
 10
26.8000
 20
34.4400
 30
0.0000
 41
2.5400
 42
2.5400
 43
1.0000
 50
0.0000
  0
INSERT
  8
17
  2
ROUNDP
 10
26.8000
 20
34.4400
 30
0.0000
 41
2.5400
 42
2.5400
 43
1.0000
 50
0.0000
  0
INSERT
  8
17
  2
ROUNDP
 10
23.0000
 20
39.5000
 30
0.0000
 41
3.8100
 42
3.8100
 43
1.0000
 50
0.0000
  0
INSERT
  8
17
  2
ROUNDP
 10
23.0000
 20
39.5000
 30
0.0000
 41
3.8100
 42
3.8100
 43
1.0000
 50
0.0000
  0
INSERT
  8
17
  2
ROUNDP
 10
16.6400
 20
25.5600
 30
0.0000
 41
2.5400
 42
2.5400
 43
1.0000
 50
0.0000
  0
INSERT
  8
17
  2
ROUNDP
 10
16.6400
 20
25.5600
 30
0.0000
 41
2.5400
 42
2.5400
 43
1.0000
 50
0.0000
  0
INSERT
  8
17
  2
ROUNDP
 10
26.8000
 20
25.5600
 30
0.0000
 41
2.5400
 42
2.5400
 43
1.0000
 50
0.0000
  0
INSERT
  8
17
  2
ROUNDP
 10
26.8000
 20
25.5600
 30
0.0000
 41
2.5400
 42
2.5400
 43
1.0000
 50
0.0000
  0
INSERT
  8
17
  2
ROUNDP
 10
16.6400
 20
15.4400
 30
0.0000
 41
2.5400
 42
2.5400
 43
1.0000
 50
0.0000
  0
INSERT
  8
17
  2
ROUNDP
 10
16.6400
 20
15.4400
 30
0.0000
 41
2.5400
 42
2.5400
 43
1.0000
 50
0.0000
  0
INSERT
  8
17
  2
ROUNDP
 10
26.8000
 20
15.4400
 30
0.0000
 41
2.5400
 42
2.5400
 43
1.0000
 50
0.0000
  0
INSERT
  8
17
  2
ROUNDP
 10
26.8000
 20
15.4400
 30
0.0000
 41
2.5400
 42
2.5400
 43
1.0000
 50
0.0000
  0
INSERT
  8
17
  2
ROUNDP
 10
23.0000
 20
20.5000
 30
0.0000
 41
3.8100
 42
3.8100
 43
1.0000
 50
0.0000
  0
INSERT
  8
17
  2
ROUNDP
 10
23.0000
 20
20.5000
 30
0.0000
 41
3.8100
 42
3.8100
 43
1.0000
 50
0.0000
  0
CIRCLE
  8
20
 10
11.0000
 20
8.5000
 30
0.0000
 40
1.6000
  0
INSERT
  8
17
  2
OCTAGONP
 10
12.4400
 20
87.4488
 30
0.0000
 41
1.4224
 42
1.4224
 43
1.0000
 50
90.0000
  0
INSERT
  8
17
  2
OCTAGONP
 10
12.4400
 20
87.4488
 30
0.0000
 41
1.4224
 42
1.4224
 43
1.0000
 50
90.0000
  0
INSERT
  8
17
  2
OCTAGONP
 10
12.4400
 20
90.1920
 30
0.0000
 41
1.4224
 42
1.4224
 43
1.0000
 50
90.0000
  0
INSERT
  8
17
  2
OCTAGONP
 10
12.4400
 20
90.1920
 30
0.0000
 41
1.4224
 42
1.4224
 43
1.0000
 50
90.0000
  0
INSERT
  8
17
  2
OCTAGONP
 10
12.4400
 20
92.9352
 30
0.0000
 41
1.4224
 42
1.4224
 43
1.0000
 50
90.0000
  0
INSERT
  8
17
  2
OCTAGONP
 10
12.4400
 20
92.9352
 30
0.0000
 41
1.4224
 42
1.4224
 43
1.0000
 50
90.0000
  0
INSERT
  8
17
  2
OCTAGONP
 10
12.4400
 20
95.6784
 30
0.0000
 41
1.4224
 42
1.4224
 43
1.0000
 50
90.0000
  0
INSERT
  8
17
  2
OCTAGONP
 10
12.4400
 20
95.6784
 30
0.0000
 41
1.4224
 42
1.4224
 43
1.0000
 50
90.0000
  0
INSERT
  8
17
  2
OCTAGONP
 10
12.4400
 20
98.4216
 30
0.0000
 41
1.4224
 42
1.4224
 43
1.0000
 50
90.0000
  0
INSERT
  8
17
  2
OCTAGONP
 10
12.4400
 20
98.4216
 30
0.0000
 41
1.4224
 42
1.4224
 43
1.0000
 50
90.0000
  0
INSERT
  8
17
  2
OCTAGONP
 10
12.4400
 20
101.1648
 30
0.0000
 41
1.4224
 42
1.4224
 43
1.0000
 50
90.0000
  0
INSERT
  8
17
  2
OCTAGONP
 10
12.4400
 20
101.1648
 30
0.0000
 41
1.4224
 42
1.4224
 43
1.0000
 50
90.0000
  0
INSERT
  8
17
  2
OCTAGONP
 10
12.4400
 20
103.9080
 30
0.0000
 41
1.4224
 42
1.4224
 43
1.0000
 50
90.0000
  0
INSERT
  8
17
  2
OCTAGONP
 10
12.4400
 20
103.9080
 30
0.0000
 41
1.4224
 42
1.4224
 43
1.0000
 50
90.0000
  0
INSERT
  8
17
  2
OCTAGONP
 10
12.4400
 20
106.6512
 30
0.0000
 41
1.4224
 42
1.4224
 43
1.0000
 50
90.0000
  0
INSERT
  8
17
  2
OCTAGONP
 10
12.4400
 20
106.6512
 30
0.0000
 41
1.4224
 42
1.4224
 43
1.0000
 50
90.0000
  0
INSERT
  8
17
  2
OCTAGONP
 10
9.9000
 20
88.8204
 30
0.0000
 41
1.4224
 42
1.4224
 43
1.0000
 50
90.0000
  0
INSERT
  8
17
  2
OCTAGONP
 10
9.9000
 20
88.8204
 30
0.0000
 41
1.4224
 42
1.4224
 43
1.0000
 50
90.0000
  0
INSERT
  8
17
  2
OCTAGONP
 10
9.9000
 20
91.5636
 30
0.0000
 41
1.4224
 42
1.4224
 43
1.0000
 50
90.0000
  0
INSERT
  8
17
  2
OCTAGONP
 10
9.9000
 20
91.5636
 30
0.0000
 41
1.4224
 42
1.4224
 43
1.0000
 50
90.0000
  0
INSERT
  8
17
  2
OCTAGONP
 10
9.9000
 20
94.3068
 30
0.0000
 41
1.4224
 42
1.4224
 43
1.0000
 50
90.0000
  0
INSERT
  8
17
  2
OCTAGONP
 10
9.9000
 20
94.3068
 30
0.0000
 41
1.4224
 42
1.4224
 43
1.0000
 50
90.0000
  0
INSERT
  8
17
  2
OCTAGONP
 10
9.9000
 20
97.0500
 30
0.0000
 41
1.4224
 42
1.4224
 43
1.0000
 50
90.0000
  0
INSERT
  8
17
  2
OCTAGONP
 10
9.9000
 20
97.0500
 30
0.0000
 41
1.4224
 42
1.4224
 43
1.0000
 50
90.0000
  0
INSERT
  8
17
  2
OCTAGONP
 10
9.9000
 20
99.7932
 30
0.0000
 41
1.4224
 42
1.4224
 43
1.0000
 50
90.0000
  0
INSERT
  8
17
  2
OCTAGONP
 10
9.9000
 20
99.7932
 30
0.0000
 41
1.4224
 42
1.4224
 43
1.0000
 50
90.0000
  0
INSERT
  8
17
  2
OCTAGONP
 10
9.9000
 20
102.5364
 30
0.0000
 41
1.4224
 42
1.4224
 43
1.0000
 50
90.0000
  0
INSERT
  8
17
  2
OCTAGONP
 10
9.9000
 20
102.5364
 30
0.0000
 41
1.4224
 42
1.4224
 43
1.0000
 50
90.0000
  0
INSERT
  8
17
  2
OCTAGONP
 10
9.9000
 20
105.2796
 30
0.0000
 41
1.4224
 42
1.4224
 43
1.0000
 50
90.0000
  0
INSERT
  8
17
  2
OCTAGONP
 10
9.9000
 20
105.2796
 30
0.0000
 41
1.4224
 42
1.4224
 43
1.0000
 50
90.0000
  0
INSERT
  8
17
  2
ROUNDP
 10
11.1700
 20
80.3876
 30
0.0000
 41
5.0800
 42
5.0800
 43
1.0000
 50
90.0000
  0
INSERT
  8
17
  2
ROUNDP
 10
11.1700
 20
80.3876
 30
0.0000
 41
5.0800
 42
5.0800
 43
1.0000
 50
90.0000
  0
INSERT
  8
17
  2
ROUNDP
 10
11.1700
 20
113.7124
 30
0.0000
 41
5.0800
 42
5.0800
 43
1.0000
 50
90.0000
  0
INSERT
  8
17
  2
ROUNDP
 10
11.1700
 20
113.7124
 30
0.0000
 41
5.0800
 42
5.0800
 43
1.0000
 50
90.0000
  0
ENDSEC
  0
EOF
